<svg width="30" height="31" viewBox="0 0 30 31" fill="none" xmlns="http://www.w3.org/2000/svg">
<g clip-path="url(#clip0_9_816)">
<path d="M8.75 5.5V3H21.25V5.5H27.5V8H25V26.75C25 27.0815 24.8683 27.3995 24.6339 27.6339C24.3995 27.8683 24.0815 28 23.75 28H6.25C5.91848 28 5.60054 27.8683 5.36612 27.6339C5.1317 27.3995 5 27.0815 5 26.75V8H2.5V5.5H8.75ZM7.5 8V25.5H22.5V8H7.5ZM11.25 11.75H13.75V21.75H11.25V11.75ZM16.25 11.75H18.75V21.75H16.25V11.75Z" fill="#A49177"/>
</g>
<defs>
<clipPath id="clip0_9_816">
<rect width="30" height="30" fill="white" transform="translate(0 0.5)"/>
</clipPath>
</defs>
</svg>
